<svg width="486" height="189" viewBox="0 0 486 189" fill="white" stroke="white" xmlns="http://www.w3.org/2000/svg">
<path d="M9.85597 135.424C3.2853 134.869 -3.51593e-05 131.499 -3.51593e-05 125.312C-3.51593e-05 121.643 1.15196 117.76 3.45597 113.664C4.8213 111.189 6.52796 108.779 8.57596 106.432C10.6666 104.085 12.928 101.973 15.36 100.096C17.8346 98.176 20.352 96.6613 22.912 95.552C25.5146 94.4427 28.0106 93.888 30.4 93.888C34.624 93.888 36.736 95.4453 36.736 98.56C36.736 100.651 36.096 102.976 34.816 105.536C33.536 108.096 32.2346 109.717 30.912 110.4C30.784 110.443 30.6346 110.464 30.464 110.464C30.336 110.464 30.272 110.421 30.272 110.336L32.384 106.88C33.8346 104.491 34.56 102.4 34.56 100.608C34.56 99.328 34.2186 98.112 33.536 96.96C32.8533 95.808 31.6373 95.232 29.888 95.232C27.7546 95.232 25.5573 95.8293 23.296 97.024C21.0773 98.2187 18.9226 99.7973 16.832 101.76C14.7413 103.723 12.8426 105.899 11.136 108.288C9.4293 110.635 8.06397 112.96 7.03997 115.264C4.86397 120.171 3.77596 124.139 3.77596 127.168C3.77596 131.733 6.1013 134.016 10.752 134.016C15.1893 134.016 21.2053 131.157 28.8 125.44C30.5493 124.117 32.7893 122.261 35.52 119.872C38.2933 117.483 41.536 114.581 45.248 111.168C44.736 111.211 44.096 111.275 43.328 111.36C42.56 111.403 41.664 111.509 40.64 111.68C40.2133 111.765 39.808 111.851 39.424 111.936C39.04 111.979 38.6773 112 38.336 112C37.4826 111.915 37.12 111.701 37.248 111.36C37.4186 109.781 38.2293 108.992 39.68 108.992C41.0026 109.163 42.24 109.291 43.392 109.376C44.5866 109.461 45.7173 109.504 46.784 109.504C48.448 107.968 50.6453 105.835 53.376 103.104C56.1493 100.331 59.4346 96.9387 63.232 92.928C68.1386 87.7653 71.1253 85.184 72.192 85.184C72.6613 85.184 72.896 85.6107 72.896 86.464C72.896 86.8053 72.8533 87.232 72.768 87.744C72.6826 88.256 72.5546 88.8533 72.384 89.536C71.9573 91.1573 71.5093 92.1387 71.04 92.48C69.7173 93.4187 68.608 94.6347 67.712 96.128C66.8586 97.5787 65.984 99.2 65.088 100.992C64.192 102.827 63.36 104.469 62.592 105.92C61.8666 107.328 61.2053 108.587 60.608 109.696L66.816 109.568C68.352 109.568 69.12 109.675 69.12 109.888C69.12 109.931 69.0773 109.995 68.992 110.08C68.2666 110.549 65.1946 110.976 59.776 111.36C55.808 119.083 53.824 124.373 53.824 127.232C53.824 129.195 54.4426 130.176 55.68 130.176C56.1493 130.176 56.7466 129.877 57.472 129.28C58.1546 128.725 58.5813 128.448 58.752 128.448C58.752 128.363 58.7733 128.341 58.816 128.384C58.8586 128.427 58.8373 128.448 58.752 128.448C58.5386 129.216 57.8986 129.899 56.832 130.496C55.808 131.136 54.72 131.456 53.568 131.456C52.5013 131.456 51.7973 131.115 51.456 130.432C51.1146 129.749 50.944 128.811 50.944 127.616C50.944 123.307 52.5866 117.824 55.872 111.168L48.192 111.36C42.4746 116.949 36.736 121.856 30.976 126.08C21.8026 132.736 14.7626 135.851 9.85597 135.424ZM56.448 109.504C56.96 108.523 57.984 106.752 59.52 104.192C61.056 101.589 63.1253 98.2187 65.728 94.08L49.344 109.44L56.448 109.504ZM78.37 128.32C76.5353 128.32 75.2766 127.851 74.594 126.912C73.9113 125.931 73.57 124.629 73.57 123.008C73.57 121.216 74.1246 119.083 75.234 116.608C75.6606 115.627 76.1086 114.752 76.578 113.984C77.0473 113.173 77.538 112.427 78.05 111.744C77.8793 111.787 77.73 111.808 77.602 111.808C77.474 111.808 77.346 111.808 77.218 111.808C76.194 111.808 75.3406 111.083 74.658 109.632L69.922 115.776C67.4046 119.061 65.8686 120.704 65.314 120.704C65.1006 120.704 64.994 120.619 64.994 120.448C64.994 120.235 65.1006 119.957 65.314 119.616C65.442 119.36 65.698 119.019 66.082 118.592C67.7033 116.715 69.1966 114.859 70.562 113.024C71.9273 111.189 73.058 109.397 73.954 107.648C74.9353 103.936 76.1726 102.08 77.666 102.08C78.6473 102.08 79.138 102.528 79.138 103.424C79.138 104.235 78.6046 105.301 77.538 106.624C76.514 107.947 76.002 108.629 76.002 108.672C76.002 109.568 76.6633 110.016 77.986 110.016C78.754 110.016 79.6073 109.739 80.546 109.184L82.21 108.16C82.2953 108.117 82.4233 108.096 82.594 108.096C83.106 108.096 83.554 108.309 83.938 108.736C84.322 109.163 84.45 109.547 84.322 109.888L79.906 115.456C77.1753 118.955 75.81 121.771 75.81 123.904C75.81 125.824 76.7486 126.784 78.626 126.784C79.906 126.784 81.2713 126.4 82.722 125.632C84.2153 124.864 85.6446 123.925 87.01 122.816C88.418 121.664 89.5913 120.555 90.53 119.488L92.066 117.696C92.1513 117.611 92.258 117.504 92.386 117.376C92.514 117.248 92.6206 117.184 92.706 117.184C93.0046 117.184 93.154 117.333 93.154 117.632C93.154 117.717 93.1113 117.867 93.026 118.08C92.9406 118.293 92.7913 118.528 92.578 118.784L90.53 121.088C89.5486 122.197 88.3326 123.328 86.882 124.48C85.474 125.589 84.002 126.507 82.466 127.232C80.9726 127.957 79.6073 128.32 78.37 128.32ZM94.4695 128.384C93.1041 128.384 92.0161 128.064 91.2055 127.424C90.4375 126.741 90.0535 125.547 90.0535 123.84C90.0535 122.859 90.3521 121.621 90.9495 120.128C91.5468 118.592 92.2935 116.949 93.1895 115.2C94.0855 113.451 94.9815 111.723 95.8775 110.016C95.3228 110.144 94.8321 110.208 94.4055 110.208C93.1255 110.208 92.4855 109.717 92.4855 108.736C92.4855 108.267 92.6561 107.904 92.9975 107.648C93.3815 107.392 93.7228 107.243 94.0215 107.2C94.0215 107.2 94.0641 107.2 94.1495 107.2C94.2775 107.2 94.4268 107.179 94.5975 107.136H98.3095C99.0775 106.155 99.8668 105.109 100.677 104C101.829 102.549 102.747 101.696 103.429 101.44H103.621C103.92 101.44 104.347 101.589 104.901 101.888C105.584 102.272 105.925 102.656 105.925 103.04C105.925 103.595 104.901 105.024 102.853 107.328C103.237 107.371 103.792 107.392 104.517 107.392C105.243 107.392 106.139 107.392 107.205 107.392C107.717 107.392 108.443 107.392 109.381 107.392C110.363 107.392 111.365 107.392 112.389 107.392C113.456 107.349 114.373 107.328 115.141 107.328C115.909 107.285 116.336 107.264 116.421 107.264C116.549 107.307 116.613 107.371 116.613 107.456C116.613 107.84 114.096 108.352 109.061 108.992C106.203 109.376 104.005 109.675 102.469 109.888C100.976 110.101 100.165 110.229 100.037 110.272C99.4401 110.784 98.7148 111.659 97.8615 112.896C97.0081 114.133 96.1548 115.52 95.3015 117.056C94.4481 118.592 93.7228 120.064 93.1255 121.472C92.5708 122.837 92.2935 123.904 92.2935 124.672C92.2935 125.355 92.5495 125.931 93.0615 126.4C93.5735 126.827 94.4055 127.04 95.5575 127.04C96.3255 127.04 97.2428 126.869 98.3095 126.528C99.3761 126.187 100.379 125.803 101.317 125.376C102.299 124.907 103.003 124.544 103.429 124.288C104.539 123.605 105.755 122.709 107.077 121.6C108.443 120.448 109.787 119.147 111.109 117.696C111.707 117.099 112.112 116.8 112.325 116.8C112.453 116.8 112.517 116.885 112.517 117.056C112.517 117.397 112.197 117.952 111.557 118.72C110.533 119.957 109.381 121.152 108.101 122.304C106.864 123.413 105.477 124.437 103.941 125.376C102.192 126.443 100.507 127.211 98.8855 127.68C97.3068 128.149 95.8348 128.384 94.4695 128.384ZM112.765 128.832C111.4 128.832 110.163 128.405 109.053 127.552C107.944 126.656 107.389 125.483 107.389 124.032C107.389 121.003 109.245 117.547 112.957 113.664C116.755 109.739 120.147 107.776 123.133 107.776C124.115 107.776 124.904 108.053 125.501 108.608C126.141 109.12 126.461 109.76 126.461 110.528C126.461 112.917 124.563 115.264 120.765 117.568C117.395 119.616 114.557 120.64 112.253 120.64C111.912 120.64 111.613 120.597 111.357 120.512C110.717 121.664 110.397 122.88 110.397 124.16C110.397 126.379 111.443 127.488 113.533 127.488C115.667 127.488 118.419 126.059 121.789 123.2C124.392 121.109 126.611 118.891 128.445 116.544C128.829 116.032 129.171 115.776 129.469 115.776C129.725 115.776 129.853 115.904 129.853 116.16C129.853 116.416 129.683 116.779 129.341 117.248C128.147 118.827 126.867 120.277 125.501 121.6C124.136 122.923 122.664 124.139 121.085 125.248C117.8 127.637 115.027 128.832 112.765 128.832ZM113.149 119.232C114.771 119.232 116.883 118.421 119.485 116.8C120.339 116.203 121.171 115.541 121.981 114.816C122.835 114.048 123.517 113.28 124.029 112.512C124.584 111.744 124.861 111.061 124.861 110.464C124.861 109.909 124.413 109.632 123.517 109.632C122.237 109.632 120.445 110.592 118.141 112.512C117.032 113.451 115.965 114.475 114.941 115.584C113.917 116.693 113.043 117.867 112.317 119.104C112.573 119.189 112.851 119.232 113.149 119.232ZM141.043 128.128C140.019 128.128 139.507 127.552 139.507 126.4C139.976 124.011 140.936 121.323 142.387 118.336C143.07 116.885 143.752 115.456 144.435 114.048C145.16 112.64 145.864 111.211 146.547 109.76C144.968 110.827 143.39 112.021 141.811 113.344C140.232 114.624 138.696 116.075 137.203 117.696C135.454 119.573 133.427 121.984 131.123 124.928C129.459 127.019 128.499 128.064 128.243 128.064C127.646 128.064 127.155 127.787 126.771 127.232C126.387 126.677 126.195 126.208 126.195 125.824C126.195 125.269 126.686 123.84 127.667 121.536C127.966 120.811 128.264 120.107 128.563 119.424C128.904 118.699 129.224 117.995 129.523 117.312L125.683 121.344C125.598 121.429 125.342 121.685 124.915 122.112C124.488 122.539 124.147 122.752 123.891 122.752C123.678 122.752 123.571 122.603 123.571 122.304C123.571 122.219 123.614 122.112 123.699 121.984C123.742 121.813 123.87 121.621 124.083 121.408C124.723 120.768 125.384 120.085 126.067 119.36C126.75 118.635 127.454 117.803 128.179 116.864C128.734 116.139 129.523 115.072 130.547 113.664C131.614 112.213 132.915 110.4 134.451 108.224C134.92 107.584 135.582 107.264 136.435 107.264C137.288 107.264 137.715 107.669 137.715 108.48C137.715 108.779 136.627 110.763 134.451 114.432C133.342 116.395 132.446 117.995 131.763 119.232C131.123 120.469 130.718 121.387 130.547 121.984C131.486 120.96 132.595 119.808 133.875 118.528C135.198 117.248 136.712 115.819 138.419 114.24C143.667 109.376 147.123 106.944 148.787 106.944C149.256 106.944 149.704 107.093 150.131 107.392C150.6 107.691 150.835 108.075 150.835 108.544C150.835 108.757 150.003 110.315 148.339 113.216C146.718 116.16 145.822 117.909 145.651 118.464C150.387 114.496 152.755 112.491 152.755 112.448C156.766 109.333 159.646 107.776 161.395 107.776C161.907 107.776 162.376 107.947 162.803 108.288C163.272 108.587 163.507 108.949 163.507 109.376C163.507 109.461 162.142 111.253 159.411 114.752C156.595 118.293 155.016 121.195 154.675 123.456C154.504 124.992 155.294 125.76 157.043 125.76C158.11 125.76 159.603 125.077 161.523 123.712C163.443 122.347 165.448 120.469 167.539 118.08C167.795 117.781 168.072 117.504 168.371 117.248C168.67 116.949 168.926 116.8 169.139 116.8C169.395 116.8 169.523 116.907 169.523 117.12C169.523 117.419 169.331 117.76 168.947 118.144C167.838 119.467 166.515 120.832 164.979 122.24C163.486 123.648 161.992 124.843 160.499 125.824C159.006 126.763 157.683 127.232 156.531 127.232C153.63 127.232 152.179 125.888 152.179 123.2C152.179 122.261 152.435 121.173 152.947 119.936C153.459 118.656 153.971 117.504 154.483 116.48C155.72 114.091 157.064 111.979 158.515 110.144C157.15 110.827 155.72 111.723 154.227 112.832C152.776 113.941 151.262 115.243 149.683 116.736C146.014 120.32 143.496 123.947 142.131 127.616C141.918 127.957 141.555 128.128 141.043 128.128ZM241 136.576C238.696 136.576 236.627 136.128 234.792 135.232C233 134.336 231.571 133.077 230.504 131.456C229.437 129.835 228.904 127.936 228.904 125.76C228.904 125.504 228.904 125.269 228.904 125.056C228.904 124.8 228.925 124.544 228.968 124.288C226.92 124.075 225.043 123.648 223.336 123.008C221.672 122.368 220.349 121.493 219.368 120.384C218.387 119.232 217.896 117.824 217.896 116.16C217.896 114.624 218.365 113.173 219.304 111.808C220.243 110.4 221.416 109.099 222.824 107.904C224.275 106.667 225.789 105.6 227.368 104.704C230.312 102.912 233.192 101.568 236.008 100.672C235.453 99.9893 235.005 99.2 234.664 98.304C234.365 97.3653 234.216 96.4693 234.216 95.616C234.216 94.08 234.771 92.7147 235.88 91.52C237.032 90.2827 238.504 89.2373 240.296 88.384C242.088 87.5307 243.987 86.8693 245.992 86.4C247.997 85.9307 249.853 85.696 251.56 85.696C256.083 85.696 258.344 87.0827 258.344 89.856C258.344 91.136 257.853 92.2453 256.872 93.184C255.891 94.1227 254.803 94.592 253.608 94.592C252.456 94.592 251.88 94.2933 251.88 93.696C251.88 93.2693 252.157 93.056 252.712 93.056C252.883 93.056 253.096 93.0987 253.352 93.184C253.437 93.2267 253.587 93.248 253.8 93.248C254.355 93.248 254.888 92.928 255.4 92.288C256.083 91.4773 256.424 90.7093 256.424 89.984C256.424 88.832 255.763 88 254.44 87.488C253.587 87.1893 252.499 87.04 251.176 87.04C249.469 87.04 247.763 87.3387 246.056 87.936C244.392 88.4907 242.856 89.28 241.448 90.304C240.083 91.2853 238.973 92.416 238.12 93.696C237.267 94.976 236.84 96.3413 236.84 97.792C236.84 98.816 237.096 99.6267 237.608 100.224C239.229 99.7547 240.659 99.52 241.896 99.52C244.371 99.52 245.608 100.011 245.608 100.992C245.608 101.547 245.245 102.037 244.52 102.464C243.795 102.848 243.005 103.04 242.152 103.04C240.019 103.04 238.205 102.485 236.712 101.376C235.517 101.717 234.259 102.251 232.936 102.976C231.613 103.701 230.227 104.597 228.776 105.664C226.813 107.115 225.107 108.736 223.656 110.528C222.205 112.277 221.48 114.155 221.48 116.16C221.48 119.957 224.061 122.069 229.224 122.496C229.693 119.467 230.696 116.736 232.232 114.304C233.811 111.872 235.88 109.867 238.44 108.288C239.891 107.392 241.533 106.688 243.368 106.176C245.245 105.621 247.123 105.195 249 104.896C250.92 104.555 252.669 104.256 254.248 104C256.339 103.659 258.024 103.275 259.304 102.848C260.584 102.421 261.544 101.973 262.184 101.504C262.653 101.163 262.995 100.779 263.208 100.352C263.464 99.9253 263.592 99.5413 263.592 99.2C263.592 98.944 263.549 98.7093 263.464 98.496C263.379 98.24 263.485 98.112 263.784 98.112C264.083 98.112 264.317 98.304 264.488 98.688C264.659 99.072 264.744 99.4347 264.744 99.776C264.744 100.629 264.317 101.547 263.464 102.528C262.525 103.467 261.395 104.171 260.072 104.64C258.749 105.109 257.363 105.472 255.912 105.728C254.461 105.984 253.032 106.283 251.624 106.624C252.435 107.392 252.84 108.544 252.84 110.08C252.84 113.237 251.048 116.267 247.464 119.168C244.989 121.131 242.344 122.496 239.528 123.264C236.755 123.989 233.768 124.352 230.568 124.352C230.525 124.608 230.483 124.885 230.44 125.184C230.44 125.44 230.44 125.696 230.44 125.952C230.44 128.811 231.4 131.136 233.32 132.928C235.283 134.72 237.843 135.616 241 135.616C242.067 135.616 242.984 135.253 243.752 134.528C244.52 133.845 244.904 133.056 244.904 132.16C244.904 131.861 244.84 131.563 244.712 131.264C244.669 131.179 244.648 131.072 244.648 130.944C244.648 130.688 244.819 130.56 245.16 130.56C245.629 130.56 245.864 131.115 245.864 132.224C245.864 133.376 245.373 134.379 244.392 135.232C243.411 136.128 242.28 136.576 241 136.576ZM241.832 102.016C242.899 102.016 243.517 101.76 243.688 101.248C243.731 100.821 243.112 100.608 241.832 100.608C240.808 100.608 239.656 100.736 238.376 100.992C239.443 101.675 240.595 102.016 241.832 102.016ZM230.76 122.56C233.533 122.56 236.371 122.112 239.272 121.216C242.216 120.32 244.691 118.955 246.696 117.12C249.384 114.688 250.728 112.192 250.728 109.632C250.728 107.755 249.917 106.816 248.296 106.816C247.827 106.816 246.781 107.008 245.16 107.392C236.925 110.464 232.125 115.52 230.76 122.56ZM376.481 132.288C375.713 132.288 375.201 132.096 374.945 131.712C374.177 130.603 373.793 129.259 373.793 127.68C373.793 124.011 375.756 118.741 379.681 111.872C382.199 107.563 386.081 101.76 391.329 94.464C389.111 96.2987 386.7 98.4107 384.097 100.8C381.495 103.189 378.7 105.835 375.713 108.736C371.831 112.533 368.652 115.883 366.177 118.784C363.745 121.643 361.996 124.011 360.929 125.888C359.82 127.893 358.476 128.896 356.897 128.896C356.172 128.896 355.809 128.64 355.809 128.128C355.809 127.957 355.873 127.787 356.001 127.616C356.727 126.464 357.665 124.949 358.817 123.072C359.969 121.152 361.335 118.869 362.913 116.224C367.521 108.203 370.828 101.824 372.833 97.088C373.559 95.296 373.921 93.9947 373.921 93.184C373.921 92.5013 373.687 92.16 373.217 92.16C372.577 92.16 371.575 92.736 370.209 93.888C365.473 97.856 360.161 103.381 354.273 110.464C351.799 113.408 349.623 116.139 347.745 118.656C345.911 121.131 344.353 123.371 343.073 125.376C342.049 126.955 341.537 128.085 341.537 128.768C341.537 129.024 341.623 129.195 341.793 129.28C342.007 129.408 342.113 129.472 342.113 129.472C342.113 129.515 341.729 129.835 340.961 130.432C340.279 130.773 339.511 130.944 338.657 130.944C336.908 130.944 336.161 130.539 336.417 129.728C337.015 127.808 338.999 124.331 342.369 119.296C346.764 112.768 349.623 108.309 350.945 105.92C353.804 100.757 355.233 96.64 355.233 93.568C355.233 91.4347 354.679 89.92 353.569 89.024C352.46 88.128 350.775 87.68 348.513 87.68C343.521 87.68 338.359 89.8347 333.025 94.144C330.721 96.0213 328.567 98.1547 326.561 100.544C324.556 102.891 322.935 105.344 321.697 107.904C320.46 110.464 319.841 112.981 319.841 115.456C319.841 119.893 321.932 122.112 326.113 122.112C331.02 122.112 334.817 120.341 337.505 116.8C338.529 115.392 339.041 114.069 339.041 112.832C339.041 112.107 338.828 111.616 338.401 111.36C338.359 111.317 338.337 111.253 338.337 111.168C338.337 110.997 338.465 110.912 338.721 110.912C339.831 110.912 340.385 111.637 340.385 113.088C340.385 113.984 340.001 115.115 339.233 116.48C338.252 118.187 336.78 119.637 334.817 120.832C332.343 122.368 329.612 123.136 326.625 123.136C323.724 123.136 321.399 122.219 319.649 120.384C317.9 118.549 317.025 116.139 317.025 113.152C317.025 106.411 321.42 99.52 330.209 92.48C331.831 91.2 333.751 90.112 335.969 89.216C338.231 88.2773 340.556 87.5733 342.945 87.104C345.335 86.592 347.532 86.336 349.537 86.336C352.439 86.336 354.636 86.8267 356.129 87.808C357.665 88.7467 358.433 90.4107 358.433 92.8C358.433 95.7867 357.217 99.8187 354.785 104.896C354.017 106.475 352.289 109.355 349.601 113.536L354.529 107.264C355.767 105.643 357.431 103.723 359.521 101.504C361.612 99.2853 364.087 96.768 366.945 93.952C368.183 92.7573 369.591 91.7333 371.169 90.88C372.748 90.0267 374.092 89.6 375.201 89.6C376.737 89.6 377.505 90.4107 377.505 92.032C377.505 93.44 376.929 95.36 375.777 97.792C374.241 101.035 372.321 104.811 370.017 109.12C369.292 110.443 368.801 111.573 368.545 112.512C368.289 113.451 368.119 113.984 368.033 114.112C368.204 113.899 368.609 113.408 369.249 112.64C369.932 111.829 370.871 110.741 372.065 109.376C373.516 107.755 375.244 105.984 377.249 104.064C379.255 102.101 381.559 100.011 384.161 97.792L394.401 89.344C395.212 88.6613 395.937 88.32 396.577 88.32C397.175 88.32 397.601 88.6827 397.857 89.408C398.156 90.0907 398.455 90.9867 398.753 92.096C398.967 92.8213 397.943 94.336 395.681 96.64C390.348 102.101 385.74 108.203 381.857 114.944C378.316 121.173 376.545 125.675 376.545 128.448C376.545 129.685 376.951 130.304 377.761 130.304C378.273 130.304 379.553 129.856 381.601 128.96C383.393 128.149 384.567 127.68 385.121 127.552C385.335 127.637 385.441 127.744 385.441 127.872C385.441 128.512 384.311 129.408 382.049 130.56C379.831 131.712 377.975 132.288 376.481 132.288ZM392.977 128.32C391.953 128.32 390.929 127.957 389.905 127.232C388.881 126.507 388.305 125.653 388.177 124.672C387.75 121.387 389.82 117.483 394.385 112.96C398.908 108.437 402.982 106.176 406.609 106.176C407.59 106.176 408.358 106.411 408.913 106.88C409.212 107.179 409.425 107.584 409.553 108.096C409.724 108.608 409.852 108.864 409.937 108.864C410.108 108.864 410.257 108.843 410.385 108.8C410.513 108.715 410.662 108.672 410.833 108.672C411.345 108.672 411.793 108.864 412.177 109.248C412.561 109.632 412.774 109.973 412.817 110.272C412.86 110.357 411.494 112.469 408.721 116.608C405.948 120.661 404.689 123.413 404.945 124.864C405.158 125.845 405.628 126.336 406.353 126.336C408.572 126.336 412.625 122.667 418.513 115.328C418.641 115.157 418.769 115.072 418.897 115.072C419.11 115.072 419.217 115.221 419.217 115.52C419.217 115.861 419.025 116.288 418.641 116.8C413.222 124.096 409.062 127.744 406.161 127.744C405.777 127.744 405.414 127.68 405.073 127.552C403.196 126.827 402.257 125.419 402.257 123.328C402.257 122.603 402.342 121.877 402.513 121.152L398.545 124.992C397.35 126.187 396.262 127.04 395.281 127.552C394.342 128.064 393.574 128.32 392.977 128.32ZM392.401 126.912C394.876 126.912 398.246 124.203 402.513 118.784L409.297 109.44C408.956 108.843 408.401 108.544 407.633 108.544C405.03 108.544 401.51 110.635 397.073 114.816C392.465 119.083 390.396 122.603 390.865 125.376C391.078 126.4 391.59 126.912 392.401 126.912ZM428.12 128.32C426.285 128.32 425.027 127.851 424.344 126.912C423.661 125.931 423.32 124.629 423.32 123.008C423.32 121.216 423.875 119.083 424.984 116.608C425.411 115.627 425.859 114.752 426.328 113.984C426.797 113.173 427.288 112.427 427.8 111.744C427.629 111.787 427.48 111.808 427.352 111.808C427.224 111.808 427.096 111.808 426.968 111.808C425.944 111.808 425.091 111.083 424.408 109.632L419.672 115.776C417.155 119.061 415.619 120.704 415.064 120.704C414.851 120.704 414.744 120.619 414.744 120.448C414.744 120.235 414.851 119.957 415.064 119.616C415.192 119.36 415.448 119.019 415.832 118.592C417.453 116.715 418.947 114.859 420.312 113.024C421.677 111.189 422.808 109.397 423.704 107.648C424.685 103.936 425.923 102.08 427.416 102.08C428.397 102.08 428.888 102.528 428.888 103.424C428.888 104.235 428.355 105.301 427.288 106.624C426.264 107.947 425.752 108.629 425.752 108.672C425.752 109.568 426.413 110.016 427.736 110.016C428.504 110.016 429.357 109.739 430.296 109.184L431.96 108.16C432.045 108.117 432.173 108.096 432.344 108.096C432.856 108.096 433.304 108.309 433.688 108.736C434.072 109.163 434.2 109.547 434.072 109.888L429.656 115.456C426.925 118.955 425.56 121.771 425.56 123.904C425.56 125.824 426.499 126.784 428.376 126.784C429.656 126.784 431.021 126.4 432.472 125.632C433.965 124.864 435.395 123.925 436.76 122.816C438.168 121.664 439.341 120.555 440.28 119.488L441.816 117.696C441.901 117.611 442.008 117.504 442.136 117.376C442.264 117.248 442.371 117.184 442.456 117.184C442.755 117.184 442.904 117.333 442.904 117.632C442.904 117.717 442.861 117.867 442.776 118.08C442.691 118.293 442.541 118.528 442.328 118.784L440.28 121.088C439.299 122.197 438.083 123.328 436.632 124.48C435.224 125.589 433.752 126.507 432.216 127.232C430.723 127.957 429.357 128.32 428.12 128.32ZM454.395 105.984C453.67 105.984 453.03 105.749 452.475 105.28C451.963 104.811 451.707 104.277 451.707 103.68C451.707 102.485 452.518 101.888 454.139 101.888C454.737 101.888 455.334 102.101 455.931 102.528C456.529 102.912 456.827 103.403 456.827 104C456.827 104.512 456.55 104.981 455.995 105.408C455.441 105.792 454.907 105.984 454.395 105.984ZM442.555 128.704C441.617 128.704 440.849 128.405 440.251 127.808C439.611 127.168 439.291 126.059 439.291 124.48C439.291 123.584 439.505 122.56 439.931 121.408C440.315 120.213 440.806 119.019 441.403 117.824C442.043 116.629 442.662 115.563 443.259 114.624C445.649 110.741 447.611 108.779 449.147 108.736C449.531 108.736 450.001 108.907 450.555 109.248C451.11 109.547 451.387 109.888 451.387 110.272C451.387 110.272 449.766 112.363 446.523 116.544C443.323 120.683 441.723 123.627 441.723 125.376C441.723 126.741 442.257 127.424 443.323 127.424C444.006 127.424 444.881 127.147 445.947 126.592C447.057 125.995 448.209 125.248 449.403 124.352C450.598 123.456 451.729 122.496 452.795 121.472C453.905 120.448 454.801 119.509 455.483 118.656C455.91 118.101 456.273 117.717 456.571 117.504C456.913 117.291 457.126 117.184 457.211 117.184C457.382 117.184 457.467 117.312 457.467 117.568C457.467 117.781 457.211 118.208 456.699 118.848C456.23 119.488 455.569 120.235 454.715 121.088C453.691 122.112 452.561 123.221 451.323 124.416C450.086 125.611 448.742 126.635 447.291 127.488C445.841 128.299 444.262 128.704 442.555 128.704ZM458.977 128.32C457.953 128.32 456.929 127.957 455.905 127.232C454.881 126.507 454.305 125.653 454.177 124.672C453.75 121.387 455.82 117.483 460.385 112.96C464.908 108.437 468.982 106.176 472.609 106.176C473.59 106.176 474.358 106.411 474.913 106.88C475.212 107.179 475.425 107.584 475.553 108.096C475.724 108.608 475.852 108.864 475.937 108.864C476.108 108.864 476.257 108.843 476.385 108.8C476.513 108.715 476.662 108.672 476.833 108.672C477.345 108.672 477.793 108.864 478.177 109.248C478.561 109.632 478.774 109.973 478.817 110.272C478.86 110.357 477.494 112.469 474.721 116.608C471.948 120.661 470.689 123.413 470.945 124.864C471.158 125.845 471.628 126.336 472.353 126.336C474.572 126.336 478.625 122.667 484.513 115.328C484.641 115.157 484.769 115.072 484.897 115.072C485.11 115.072 485.217 115.221 485.217 115.52C485.217 115.861 485.025 116.288 484.641 116.8C479.222 124.096 475.062 127.744 472.161 127.744C471.777 127.744 471.414 127.68 471.073 127.552C469.196 126.827 468.257 125.419 468.257 123.328C468.257 122.603 468.342 121.877 468.513 121.152L464.545 124.992C463.35 126.187 462.262 127.04 461.281 127.552C460.342 128.064 459.574 128.32 458.977 128.32ZM458.401 126.912C460.876 126.912 464.246 124.203 468.513 118.784L475.297 109.44C474.956 108.843 474.401 108.544 473.633 108.544C471.03 108.544 467.51 110.635 463.073 114.816C458.465 119.083 456.396 122.603 456.865 125.376C457.078 126.4 457.59 126.912 458.401 126.912Z" fill="while"/>
<mask id="mask0_0_1" style="mask-type:alpha" maskUnits="userSpaceOnUse" x="-39" y="-17" width="501" height="169">
<path d="M-37.4725 -17H461.064V83H385.803H352.176L327.064 144L296.064 152L256.564 83H221.404H126.927H50.5987H-38.936L-37.4725 -17Z" fill="#D9D9D9"/>
</mask>
<g mask="url(#mask0_0_1)">
<path d="M154.304 177.12C154.304 172.98 153.044 167.22 150.524 159.84C148.184 152.46 144.674 142.47 139.994 129.87H57.644C53.864 141.03 50.984 150.21 49.004 157.41C47.024 164.61 46.034 170.28 46.034 174.42C46.034 179.64 47.744 182.88 51.164 184.14C54.584 185.22 59.714 185.76 66.554 185.76L67.094 189H6.34396L6.88396 185.76C11.564 185.76 15.614 185.22 19.034 184.14C22.634 183.06 25.964 180.72 29.024 177.12C32.084 173.52 35.324 167.94 38.744 160.38C42.164 152.82 46.124 142.47 50.624 129.33L74.654 59.94C78.254 49.68 80.954 41.67 82.754 35.91C84.554 29.97 85.724 25.38 86.264 22.14C86.984 18.9 87.344 16.11 87.344 13.77C87.344 9.63 86.084 6.84001 83.564 5.40001C81.044 3.78001 76.184 2.97001 68.984 2.97001L68.444 2.38419e-06H112.994L160.784 129.33C165.644 142.47 169.604 152.82 172.664 160.38C175.904 167.94 178.874 173.52 181.574 177.12C184.274 180.72 187.154 183.06 190.214 184.14C193.274 185.22 197.234 185.76 202.094 185.76L202.634 189H135.134L135.674 185.76C141.974 185.76 146.654 185.31 149.714 184.41C152.774 183.33 154.304 180.9 154.304 177.12ZM97.874 14.58L59.804 123.39H137.834L97.874 14.58ZM415.468 61.02V127.98C415.468 141.12 415.738 151.56 416.278 159.3C416.818 167.04 417.898 172.8 419.518 176.58C421.318 180.36 423.928 182.88 427.348 184.14C430.948 185.22 435.808 185.76 441.928 185.76L442.468 189H370.108L370.648 185.76C376.768 185.76 381.538 185.22 384.958 184.14C388.558 182.88 391.168 180.36 392.788 176.58C394.408 172.8 395.398 167.04 395.758 159.3C396.298 151.56 396.568 141.12 396.568 127.98V13.77L320.968 186.3L242.938 40.23V127.44C242.938 140.58 243.298 151.11 244.018 159.03C244.918 166.77 246.448 172.62 248.608 176.58C250.768 180.36 253.738 182.88 257.518 184.14C261.478 185.22 266.518 185.76 272.638 185.76L273.178 189H206.758L207.298 185.76C213.418 185.76 218.368 185.22 222.148 184.14C225.928 182.88 228.808 180.36 230.788 176.58C232.948 172.62 234.388 166.77 235.108 159.03C235.828 151.11 236.188 140.58 236.188 127.44V61.29C236.188 47.97 235.828 37.44 235.108 29.7C234.388 21.96 232.948 16.2 230.788 12.42C228.808 8.46 225.928 5.94 222.148 4.86C218.368 3.60001 213.418 2.97001 207.298 2.97001L206.758 2.38419e-06H242.938L326.368 157.41L395.218 2.38419e-06H442.468L441.928 2.97001C435.808 2.97001 430.948 3.60001 427.348 4.86C423.928 5.94 421.318 8.46 419.518 12.42C417.898 16.2 416.818 21.96 416.278 29.7C415.738 37.44 415.468 47.88 415.468 61.02Z" fill="while"/>
</g>
<mask id="mask1_0_1" style="mask-type:alpha" maskUnits="userSpaceOnUse" x="-33" y="140" width="466" height="65">
<rect x="-32.936" y="140" width="465" height="65" fill="while"/>
</mask>
<g mask="url(#mask1_0_1)">
<path d="M154.304 177.12C154.304 172.98 153.044 167.22 150.524 159.84C148.184 152.46 144.674 142.47 139.994 129.87H57.644C53.864 141.03 50.984 150.21 49.004 157.41C47.024 164.61 46.034 170.28 46.034 174.42C46.034 179.64 47.744 182.88 51.164 184.14C54.584 185.22 59.714 185.76 66.554 185.76L67.094 189H6.34396L6.88396 185.76C11.564 185.76 15.614 185.22 19.034 184.14C22.634 183.06 25.964 180.72 29.024 177.12C32.084 173.52 35.324 167.94 38.744 160.38C42.164 152.82 46.124 142.47 50.624 129.33L74.654 59.94C78.254 49.68 80.954 41.67 82.754 35.91C84.554 29.97 85.724 25.38 86.264 22.14C86.984 18.9 87.344 16.11 87.344 13.77C87.344 9.63 86.084 6.84001 83.564 5.40001C81.044 3.78001 76.184 2.97001 68.984 2.97001L68.444 2.38419e-06H112.994L160.784 129.33C165.644 142.47 169.604 152.82 172.664 160.38C175.904 167.94 178.874 173.52 181.574 177.12C184.274 180.72 187.154 183.06 190.214 184.14C193.274 185.22 197.234 185.76 202.094 185.76L202.634 189H135.134L135.674 185.76C141.974 185.76 146.654 185.31 149.714 184.41C152.774 183.33 154.304 180.9 154.304 177.12ZM97.874 14.58L59.804 123.39H137.834L97.874 14.58ZM415.468 61.02V127.98C415.468 141.12 415.738 151.56 416.278 159.3C416.818 167.04 417.898 172.8 419.518 176.58C421.318 180.36 423.928 182.88 427.348 184.14C430.948 185.22 435.808 185.76 441.928 185.76L442.468 189H370.108L370.648 185.76C376.768 185.76 381.538 185.22 384.958 184.14C388.558 182.88 391.168 180.36 392.788 176.58C394.408 172.8 395.398 167.04 395.758 159.3C396.298 151.56 396.568 141.12 396.568 127.98V13.77L320.968 186.3L242.938 40.23V127.44C242.938 140.58 243.298 151.11 244.018 159.03C244.918 166.77 246.448 172.62 248.608 176.58C250.768 180.36 253.738 182.88 257.518 184.14C261.478 185.22 266.518 185.76 272.638 185.76L273.178 189H206.758L207.298 185.76C213.418 185.76 218.368 185.22 222.148 184.14C225.928 182.88 228.808 180.36 230.788 176.58C232.948 172.62 234.388 166.77 235.108 159.03C235.828 151.11 236.188 140.58 236.188 127.44V61.29C236.188 47.97 235.828 37.44 235.108 29.7C234.388 21.96 232.948 16.2 230.788 12.42C228.808 8.46 225.928 5.94 222.148 4.86C218.368 3.60001 213.418 2.97001 207.298 2.97001L206.758 2.38419e-06H242.938L326.368 157.41L395.218 2.38419e-06H442.468L441.928 2.97001C435.808 2.97001 430.948 3.60001 427.348 4.86C423.928 5.94 421.318 8.46 419.518 12.42C417.898 16.2 416.818 21.96 416.278 29.7C415.738 37.44 415.468 47.88 415.468 61.02Z" fill="while"/>
</g>
</svg>
